<?xml version="1.0" standalone="no"?>
<!DOCTYPE svg PUBLIC "-//W3C//DTD SVG 20010904//EN"
 "http://www.w3.org/TR/2001/REC-SVG-20010904/DTD/svg10.dtd">
<svg version="1.0" xmlns="http://www.w3.org/2000/svg"
 width="128.000000pt" height="128.000000pt" viewBox="0 0 128.000000 128.000000"
 preserveAspectRatio="xMidYMid meet">
<metadata>
Created by potrace 1.14, written by Peter Selinger 2001-2017
</metadata>
<g transform="translate(0.000000,128.000000) scale(0.100000,-0.100000)"
fill="#000000" stroke="none">
<path d="M0 640 l0 -640 640 0 640 0 0 640 0 640 -640 0 -640 0 0 -640z m230
110 l0 -290 155 0 156 0 -3 -77 -3 -78 -235 0 -235 0 -3 368 -2 367 85 0 85 0
0 -290z m409 54 c22 -63 44 -126 47 -140 4 -14 10 -22 14 -17 4 4 27 64 51
133 23 69 46 130 50 135 4 6 26 9 48 7 l40 -4 40 -114 c23 -63 44 -126 47
-139 3 -14 9 -25 13 -25 4 0 27 62 52 138 l45 137 87 3 86 3 -21 -63 c-71
-215 -183 -535 -191 -545 -5 -7 -26 -13 -47 -13 -21 0 -42 6 -47 13 -6 6 -32
75 -58 151 -57 162 -45 166 -115 -42 l-42 -122 -49 0 c-27 0 -49 1 -49 3 0 1
-47 137 -105 302 -58 165 -105 305 -105 310 0 6 33 9 84 7 l84 -3 41 -115z"/>
</g>
</svg>
